<?xml version="1.0" standalone="no"?>
<!DOCTYPE svg PUBLIC "-//W3C//DTD SVG 20010904//EN"
 "http://www.w3.org/TR/2001/REC-SVG-20010904/DTD/svg10.dtd">
<svg version="1.0" xmlns="http://www.w3.org/2000/svg"
 width="62.000000pt" height="62.000000pt" viewBox="0 0 62.000000 62.000000"
 preserveAspectRatio="xMidYMid meet">

<g transform="translate(0.000000,62.000000) scale(0.100000,-0.100000)"
fill="#000000" stroke="none">
<path d="M280 330 l0 -280 30 0 30 0 0 78 c0 69 3 81 23 100 13 12 26 22 29
22 4 0 35 -45 70 -100 61 -97 64 -100 101 -100 20 0 37 2 37 4 0 3 -36 60 -80
128 l-79 123 77 78 77 77 -47 0 c-45 0 -48 -2 -118 -80 -40 -44 -76 -80 -81
-80 -5 0 -9 70 -9 155 l0 155 -30 0 -30 0 0 -280z"/>
<path d="M133 449 c-18 -12 -33 -25 -33 -30 0 -5 -4 -9 -10 -9 -5 0 -10 11
-10 25 0 21 -5 25 -30 25 l-30 0 0 -205 0 -205 30 0 30 0 0 141 c0 77 5 149
10 160 14 25 62 49 100 49 28 0 30 3 30 35 0 32 -3 35 -27 35 -16 0 -43 -10
-60 -21z"/>
</g>
</svg>
